#N canvas 652 175 630 521 10;
#X obj 30 22 receive fromGUI;
#X obj 30 48 list trim;
#X obj 30 74 s \$0-gui;
#N canvas 771 235 450 300 pag0 0;
#X obj 16 97 send toNetwork;
#X obj 16 45 route /XYbig;
#X obj 16 19 r \$0-gui;
#X msg 16 71 list /XYbig \$1 \$2;
#X connect 1 0 3 0;
#X connect 2 0 1 0;
#X connect 3 0 0 0;
#X restore 30 110 pd pag0;
#N canvas 130 130 566 300 pag1 0;
#X obj 7 86 send toNetwork;
#X obj 7 8 r \$0-gui;
#X obj 7 34 route /XYleft;
#X obj 137 8 r \$0-gui;
#X obj 137 34 route /XYright;
#X msg 7 60 list /XYleft \$1 \$2;
#X obj 137 86 send toNetwork;
#X msg 137 60 list /XYright \$1 \$2;
#X connect 1 0 2 0;
#X connect 2 0 5 0;
#X connect 3 0 4 0;
#X connect 4 0 7 0;
#X connect 5 0 0 0;
#X connect 7 0 6 0;
#X restore 30 136 pd pag1;
#N canvas 707 155 639 505 pag2 0;
#X obj 7 86 send toNetwork;
#X obj 7 8 r \$0-gui;
#X obj 7 34 route /tableSmall;
#X obj 287 86 send toNetwork;
#X obj 287 8 r \$0-gui;
#X obj 287 34 route /buttons4x4;
#X msg 287 60 list /buttons4x4 \$1 \$2 \$3;
#X obj 7 200 send toNetwork;
#X obj 7 122 r \$0-gui;
#X obj 7 148 route /toggles3x3;
#X msg 7 174 list /toggles3x3 \$1 \$2 \$3;
#X obj 177 200 send toNetwork;
#X obj 177 122 r \$0-gui;
#X obj 177 148 route /sliderBig;
#X msg 177 174 list /sliderBig \$1;
#X msg 7 60 list /tableSmall \$1 \$2 \$3 \$4 \$5 \$6 \$7 \$8;
#X connect 1 0 2 0;
#X connect 2 0 15 0;
#X connect 4 0 5 0;
#X connect 5 0 6 0;
#X connect 6 0 3 0;
#X connect 8 0 9 0;
#X connect 9 0 10 0;
#X connect 10 0 7 0;
#X connect 12 0 13 0;
#X connect 13 0 14 0;
#X connect 14 0 11 0;
#X connect 15 0 0 0;
#X restore 30 162 pd pag2;
#N canvas 707 155 639 505 pag3 0;
#X obj 7 86 send toNetwork;
#X obj 7 8 r \$0-gui;
#X obj 446 200 send toNetwork;
#X obj 446 122 r \$0-gui;
#X obj 7 200 send toNetwork;
#X obj 7 122 r \$0-gui;
#X obj 7 314 send toNetwork;
#X obj 7 236 r \$0-gui;
#X obj 7 34 route /tableBig;
#X obj 7 262 route /sliderLeft;
#X msg 7 288 list /sliderLeft \$1;
#X obj 277 314 send toNetwork;
#X obj 277 236 r \$0-gui;
#X obj 277 262 route /sliderRight;
#X msg 277 288 list /sliderRight \$1;
#X obj 277 200 send toNetwork;
#X obj 277 122 r \$0-gui;
#X obj 277 148 route /toggles2x1;
#X obj 446 148 route /XYsmall;
#X msg 446 174 list /XYsmall \$1 \$2;
#X obj 7 148 route /knobLeft;
#X msg 7 174 list /knobLeft \$1;
#X obj 127 200 send toNetwork;
#X obj 127 122 r \$0-gui;
#X obj 127 148 route /knobRight;
#X msg 127 174 list /knobRight \$1;
#X msg 277 174 list /toggles2x1 \$1 \$3;
#X msg 7 60 list /tableBig \$1 \$2 \$3 \$4 \$5 \$6 \$7 \$8 \$9 \$10
\$11 \$12 \$13 \$14, f 61;
#X connect 1 0 8 0;
#X connect 3 0 18 0;
#X connect 5 0 20 0;
#X connect 7 0 9 0;
#X connect 8 0 27 0;
#X connect 9 0 10 0;
#X connect 10 0 6 0;
#X connect 12 0 13 0;
#X connect 13 0 14 0;
#X connect 14 0 11 0;
#X connect 16 0 17 0;
#X connect 17 0 26 0;
#X connect 18 0 19 0;
#X connect 19 0 2 0;
#X connect 20 0 21 0;
#X connect 21 0 4 0;
#X connect 23 0 24 0;
#X connect 24 0 25 0;
#X connect 25 0 22 0;
#X connect 26 0 15 0;
#X connect 27 0 0 0;
#X restore 30 188 pd pag3;
#N canvas 771 235 450 300 pag4 0;
#X obj 16 97 send toNetwork;
#X obj 16 19 r \$0-gui;
#X obj 16 71 list prepend /multiTouch;
#X obj 16 45 route /multiTouch;
#X connect 1 0 3 0;
#X connect 2 0 0 0;
#X connect 3 0 2 0;
#X restore 30 214 pd pag4;
#X connect 0 0 1 0;
#X connect 1 0 2 0;
