#N canvas 910 88 665 588 10;
#X obj 38 75 oscparse;
#X obj 38 101 list trim;
#X obj 38 49 netreceive -u -b 54321;
#X obj 38 127 s \$0-message;
#N canvas 42 102 450 300 page0 0;
#X obj 14 31 route XYbig;
#X obj 14 10 r \$0-message;
#X obj 14 52 unpack;
#X obj 47 73 clip 0.05 0.95;
#X obj 47 94 - 0.05;
#X obj 47 115 * 1.11111;
#X obj 14 136 pack, f 6;
#X obj 14 157 list prepend XYbig;
#X obj 14 178 list trim;
#X obj 14 199 s MMP;
#X connect 0 0 2 0;
#X connect 1 0 0 0;
#X connect 2 0 6 0;
#X connect 2 1 3 0;
#X connect 3 0 4 0;
#X connect 4 0 5 0;
#X connect 5 0 6 1;
#X connect 6 0 7 0;
#X connect 7 0 8 0;
#X connect 8 0 9 0;
#X restore 38 163 pd page0;
#N canvas 156 156 450 300 page1 0;
#X obj 11 35 route XYleft;
#X obj 139 35 route XYright;
#X obj 11 14 r \$0-message;
#X obj 139 14 r \$0-message;
#X obj 11 56 unpack;
#X obj 44 77 clip 0.05 0.95;
#X obj 44 98 - 0.05;
#X obj 44 119 * 1.11111;
#X obj 11 140 pack, f 6;
#X obj 139 56 unpack;
#X obj 172 77 clip 0.05 0.95;
#X obj 172 98 - 0.05;
#X obj 172 119 * 1.11111;
#X obj 139 140 pack, f 6;
#X obj 11 161 list prepend XYleft;
#X obj 11 182 list trim;
#X obj 139 161 list prepend XYright;
#X obj 139 182 list trim;
#X obj 11 203 s MMP;
#X obj 139 203 s MMP;
#X connect 0 0 4 0;
#X connect 1 0 9 0;
#X connect 2 0 0 0;
#X connect 3 0 1 0;
#X connect 4 0 8 0;
#X connect 4 1 5 0;
#X connect 5 0 6 0;
#X connect 6 0 7 0;
#X connect 7 0 8 1;
#X connect 8 0 14 0;
#X connect 9 0 13 0;
#X connect 9 1 10 0;
#X connect 10 0 11 0;
#X connect 11 0 12 0;
#X connect 12 0 13 1;
#X connect 13 0 16 0;
#X connect 14 0 15 0;
#X connect 15 0 18 0;
#X connect 16 0 17 0;
#X connect 17 0 19 0;
#X restore 38 189 pd page1;
#N canvas 223 0 450 676 page2 0;
#X obj 244 17 r \$0-message;
#X obj 244 38 route buttons4x4;
#X obj 9 376 r \$0-message;
#X obj 9 397 route toggles3x3;
#X obj 161 313 r \$0-message;
#X obj 161 334 route sliderBig;
#X obj 9 10 r \$0-message;
#X obj 9 73 change;
#X obj 27 94 change;
#X obj 45 115 change;
#X obj 64 73 change;
#X obj 82 94 change;
#X obj 101 115 change;
#X obj 119 73 change;
#X obj 138 94 change;
#X msg 9 141 0 \$1;
#X msg 27 162 1 \$1;
#X msg 45 183 2 \$1;
#X msg 64 141 3 \$1;
#X msg 82 162 4 \$1;
#X msg 101 183 5 \$1;
#X msg 119 141 6 \$1;
#X msg 138 162 7 \$1;
#X obj 9 31 route tableSmall;
#X obj 9 52 unpack f f f f f f f f;
#X obj 161 355 clip 0.05 0.95;
#X obj 161 376 - 0.05;
#X obj 161 397 * 1.11111;
#X obj 73 219 list prepend tableSmall;
#X obj 73 240 list trim;
#X obj 73 261 s MMP;
#X obj 9 418 list prepend toggles3x3;
#X obj 9 439 list trim;
#X obj 9 460 s MMP;
#X obj 161 418 list prepend sliderBig;
#X obj 161 439 list trim;
#X obj 161 460 s MMP;
#X obj 244 59 list prepend buttons4x4;
#X obj 244 80 list trim;
#X obj 244 101 s MMP;
#X connect 0 0 1 0;
#X connect 1 0 37 0;
#X connect 2 0 3 0;
#X connect 3 0 31 0;
#X connect 4 0 5 0;
#X connect 5 0 25 0;
#X connect 6 0 23 0;
#X connect 7 0 15 0;
#X connect 8 0 16 0;
#X connect 9 0 17 0;
#X connect 10 0 18 0;
#X connect 11 0 19 0;
#X connect 12 0 20 0;
#X connect 13 0 21 0;
#X connect 14 0 22 0;
#X connect 15 0 28 0;
#X connect 16 0 28 0;
#X connect 17 0 28 0;
#X connect 18 0 28 0;
#X connect 19 0 28 0;
#X connect 20 0 28 0;
#X connect 21 0 28 0;
#X connect 22 0 28 0;
#X connect 23 0 24 0;
#X connect 24 0 7 0;
#X connect 24 1 8 0;
#X connect 24 2 9 0;
#X connect 24 3 10 0;
#X connect 24 4 11 0;
#X connect 24 5 12 0;
#X connect 24 6 13 0;
#X connect 24 7 14 0;
#X connect 25 0 26 0;
#X connect 26 0 27 0;
#X connect 27 0 34 0;
#X connect 28 0 29 0;
#X connect 29 0 30 0;
#X connect 31 0 32 0;
#X connect 32 0 33 0;
#X connect 34 0 35 0;
#X connect 35 0 36 0;
#X connect 37 0 38 0;
#X connect 38 0 39 0;
#X restore 38 215 pd page2;
#N canvas 746 0 577 676 page3 0;
#X obj 9 10 r \$0-message;
#X obj 9 305 r \$0-message;
#X obj 9 467 r \$0-message;
#X obj 9 31 route tableBig;
#X obj 9 326 route knobLeft;
#X obj 149 305 r \$0-message;
#X obj 149 326 route knobRight;
#X obj 295 305 r \$0-message;
#X obj 9 488 route sliderLeft;
#X obj 161 467 r \$0-message;
#X obj 161 488 route sliderRight;
#X obj 295 326 route toggles2x1;
#X obj 319 425 r \$0-message;
#X obj 319 446 route XYsmall;
#X obj 9 52 unpack f f f f f f f f f f f f f f;
#X obj 9 73 change;
#X obj 24 94 change;
#X obj 39 115 change;
#X obj 55 73 change;
#X obj 70 94 change;
#X obj 86 115 change;
#X obj 101 73 change;
#X obj 117 94 change;
#X obj 132 115 change;
#X obj 148 73 change;
#X obj 163 94 change;
#X obj 179 115 change;
#X obj 194 73 change;
#X obj 210 94 change;
#X msg 9 141 0 \$1;
#X msg 24 162 1 \$1;
#X msg 39 183 2 \$1;
#X msg 55 141 3 \$1;
#X msg 70 162 4 \$1;
#X msg 86 183 5 \$1;
#X msg 101 141 6 \$1;
#X msg 117 162 7 \$1;
#X msg 132 183 8 \$1;
#X msg 148 141 9 \$1;
#X msg 163 162 10 \$1;
#X msg 179 183 11 \$1;
#X msg 194 141 12 \$1;
#X msg 210 162 13 \$1;
#X obj 9 509 clip 0.05 0.95;
#X obj 9 530 - 0.05;
#X obj 9 551 * 1.11111;
#X obj 161 509 clip 0.05 0.95;
#X obj 161 530 - 0.05;
#X obj 161 551 * 1.11111;
#X obj 319 467 unpack;
#X obj 352 488 clip 0.05 0.95;
#X obj 352 509 - 0.05;
#X obj 352 530 * 1.11111;
#X obj 319 551 pack, f 6;
#X obj 109 219 list prepend tableBig;
#X obj 109 240 list trim;
#X obj 109 261 s MMP;
#X obj 9 347 list prepend knobLeft;
#X obj 149 347 list prepend knobRight;
#X obj 9 368 list trim;
#X obj 9 389 s MMP;
#X obj 149 368 list trim;
#X obj 149 389 s MMP;
#X obj 295 347 list prepend toggles2x1;
#X obj 295 368 list trim;
#X obj 295 389 s MMP;
#X obj 9 572 list prepend sliderLeft;
#X obj 9 593 list trim;
#X obj 9 614 s MMP;
#X obj 161 572 list prepend sliderRight;
#X obj 161 593 list trim;
#X obj 161 614 s MMP;
#X obj 319 572 list prepend XYsmall;
#X obj 319 593 list trim;
#X obj 319 614 s MMP;
#X connect 0 0 3 0;
#X connect 1 0 4 0;
#X connect 2 0 8 0;
#X connect 3 0 14 0;
#X connect 4 0 57 0;
#X connect 5 0 6 0;
#X connect 6 0 58 0;
#X connect 7 0 11 0;
#X connect 8 0 43 0;
#X connect 9 0 10 0;
#X connect 10 0 46 0;
#X connect 11 0 63 0;
#X connect 12 0 13 0;
#X connect 13 0 49 0;
#X connect 14 0 15 0;
#X connect 14 1 16 0;
#X connect 14 2 17 0;
#X connect 14 3 18 0;
#X connect 14 4 19 0;
#X connect 14 5 20 0;
#X connect 14 6 21 0;
#X connect 14 7 22 0;
#X connect 14 8 23 0;
#X connect 14 9 24 0;
#X connect 14 10 25 0;
#X connect 14 11 26 0;
#X connect 14 12 27 0;
#X connect 14 13 28 0;
#X connect 15 0 29 0;
#X connect 16 0 30 0;
#X connect 17 0 31 0;
#X connect 18 0 32 0;
#X connect 19 0 33 0;
#X connect 20 0 34 0;
#X connect 21 0 35 0;
#X connect 22 0 36 0;
#X connect 23 0 37 0;
#X connect 24 0 38 0;
#X connect 25 0 39 0;
#X connect 26 0 40 0;
#X connect 27 0 41 0;
#X connect 28 0 42 0;
#X connect 29 0 54 0;
#X connect 30 0 54 0;
#X connect 31 0 54 0;
#X connect 32 0 54 0;
#X connect 33 0 54 0;
#X connect 34 0 54 0;
#X connect 35 0 54 0;
#X connect 36 0 54 0;
#X connect 37 0 54 0;
#X connect 38 0 54 0;
#X connect 39 0 54 0;
#X connect 40 0 54 0;
#X connect 41 0 54 0;
#X connect 42 0 54 0;
#X connect 43 0 44 0;
#X connect 44 0 45 0;
#X connect 45 0 66 0;
#X connect 46 0 47 0;
#X connect 47 0 48 0;
#X connect 48 0 69 0;
#X connect 49 0 53 0;
#X connect 49 1 50 0;
#X connect 50 0 51 0;
#X connect 51 0 52 0;
#X connect 52 0 53 1;
#X connect 53 0 72 0;
#X connect 54 0 55 0;
#X connect 55 0 56 0;
#X connect 57 0 59 0;
#X connect 58 0 61 0;
#X connect 59 0 60 0;
#X connect 61 0 62 0;
#X connect 63 0 64 0;
#X connect 64 0 65 0;
#X connect 66 0 67 0;
#X connect 67 0 68 0;
#X connect 69 0 70 0;
#X connect 70 0 71 0;
#X connect 72 0 73 0;
#X connect 73 0 74 0;
#X restore 38 241 pd page3;
#N canvas 53 0 637 676 page4 0;
#X obj 14 10 r \$0-message;
#X obj 14 31 route multiTouch;
#X obj 14 52 route touchesByTime;
#X obj 14 73 unpack f f f f f f f f f f f f f f f f f f, f 92;
#X obj 14 208 pack f f f, f 14;
#X obj 27 161 change;
#X obj 27 182 t b f;
#X obj 56 104 change;
#X obj 56 125 t b f, f 7;
#X obj 110 208 pack f f f, f 14;
#X obj 123 161 change;
#X obj 123 182 t b f;
#X obj 152 104 change;
#X obj 152 125 t b f, f 7;
#X obj 14 104 change;
#X obj 110 104 change;
#X obj 207 208 pack f f f, f 14;
#X obj 220 161 change;
#X obj 220 182 t b f;
#X obj 249 104 change;
#X obj 249 125 t b f, f 7;
#X obj 207 104 change;
#X obj 304 208 pack f f f, f 14;
#X obj 317 161 change;
#X obj 317 182 t b f;
#X obj 346 104 change;
#X obj 346 125 t b f, f 7;
#X obj 401 208 pack f f f, f 14;
#X obj 414 161 change;
#X obj 414 182 t b f;
#X obj 443 104 change;
#X obj 443 125 t b f, f 7;
#X obj 304 104 change;
#X obj 401 104 change;
#X obj 498 208 pack f f f, f 14;
#X obj 511 161 change;
#X obj 511 182 t b f;
#X obj 540 104 change;
#X obj 540 125 t b f, f 7;
#X obj 498 104 change;
#X obj 255 264 list prepend multiTouch;
#X obj 255 285 list trim;
#X obj 255 306 s MMP;
#X connect 0 0 1 0;
#X connect 1 0 2 0;
#X connect 2 0 3 0;
#X connect 3 0 14 0;
#X connect 3 1 5 0;
#X connect 3 2 7 0;
#X connect 3 3 15 0;
#X connect 3 4 10 0;
#X connect 3 5 12 0;
#X connect 3 6 21 0;
#X connect 3 7 17 0;
#X connect 3 8 19 0;
#X connect 3 9 32 0;
#X connect 3 10 23 0;
#X connect 3 11 25 0;
#X connect 3 12 33 0;
#X connect 3 13 28 0;
#X connect 3 14 30 0;
#X connect 3 15 39 0;
#X connect 3 16 35 0;
#X connect 3 17 37 0;
#X connect 4 0 40 0;
#X connect 5 0 6 0;
#X connect 6 0 4 0;
#X connect 6 1 4 1;
#X connect 7 0 8 0;
#X connect 8 0 4 0;
#X connect 8 1 4 2;
#X connect 9 0 40 0;
#X connect 10 0 11 0;
#X connect 11 0 9 0;
#X connect 11 1 9 1;
#X connect 12 0 13 0;
#X connect 13 0 9 0;
#X connect 13 1 9 2;
#X connect 14 0 4 0;
#X connect 15 0 9 0;
#X connect 16 0 40 0;
#X connect 17 0 18 0;
#X connect 18 0 16 0;
#X connect 18 1 16 1;
#X connect 19 0 20 0;
#X connect 20 0 16 0;
#X connect 20 1 16 2;
#X connect 21 0 16 0;
#X connect 22 0 40 0;
#X connect 23 0 24 0;
#X connect 24 0 22 0;
#X connect 24 1 22 1;
#X connect 25 0 26 0;
#X connect 26 0 22 0;
#X connect 26 1 22 2;
#X connect 27 0 40 0;
#X connect 28 0 29 0;
#X connect 29 0 27 0;
#X connect 29 1 27 1;
#X connect 30 0 31 0;
#X connect 31 0 27 0;
#X connect 31 1 27 2;
#X connect 32 0 22 0;
#X connect 33 0 27 0;
#X connect 34 0 40 0;
#X connect 35 0 36 0;
#X connect 36 0 34 0;
#X connect 36 1 34 1;
#X connect 37 0 38 0;
#X connect 38 0 34 0;
#X connect 38 1 34 2;
#X connect 39 0 34 0;
#X connect 40 0 41 0;
#X connect 41 0 42 0;
#X restore 38 267 pd page4;
#N canvas 687 169 637 676 page5 0;
#X obj 14 10 r \$0-message;
#X obj 14 73 list trim;
#X obj 14 94 s MMP;
#X obj 14 31 route playhead0;
#X obj 14 52 list prepend playhead0;
#X obj 154 10 r \$0-message;
#X obj 154 73 list trim;
#X obj 154 94 s MMP;
#X obj 304 10 r \$0-message;
#X obj 304 73 list trim;
#X obj 304 94 s MMP;
#X obj 154 31 route playSlider0;
#X obj 154 52 list prepend playSlider0;
#X obj 304 52 list prepend playSlider1;
#X obj 304 31 route playSlider1;
#X obj 14 120 r \$0-message;
#X obj 14 183 list trim;
#X obj 14 204 s MMP;
#X obj 14 141 route playToggles0;
#X obj 14 162 list prepend playToggles0;
#X obj 14 250 r \$0-message;
#X obj 14 313 list trim;
#X obj 14 334 s MMP;
#X obj 154 250 r \$0-message;
#X obj 154 313 list trim;
#X obj 154 334 s MMP;
#X obj 304 250 r \$0-message;
#X obj 304 313 list trim;
#X obj 304 334 s MMP;
#X obj 14 360 r \$0-message;
#X obj 14 423 list trim;
#X obj 14 444 s MMP;
#X obj 14 271 route playhead1;
#X obj 14 292 list prepend playhead1;
#X obj 154 271 route playSlider2;
#X obj 154 292 list prepend playSlider2;
#X obj 304 271 route playSlider3;
#X obj 304 292 list prepend playSlider3;
#X obj 14 381 route playToggles1;
#X obj 14 402 list prepend playToggles1;
#X connect 0 0 3 0;
#X connect 1 0 2 0;
#X connect 3 0 4 0;
#X connect 4 0 1 0;
#X connect 5 0 11 0;
#X connect 6 0 7 0;
#X connect 8 0 14 0;
#X connect 9 0 10 0;
#X connect 11 0 12 0;
#X connect 12 0 6 0;
#X connect 13 0 9 0;
#X connect 14 0 13 0;
#X connect 15 0 18 0;
#X connect 16 0 17 0;
#X connect 18 0 19 0;
#X connect 19 0 16 0;
#X connect 20 0 32 0;
#X connect 21 0 22 0;
#X connect 23 0 34 0;
#X connect 24 0 25 0;
#X connect 26 0 36 0;
#X connect 27 0 28 0;
#X connect 29 0 38 0;
#X connect 30 0 31 0;
#X connect 32 0 33 0;
#X connect 33 0 21 0;
#X connect 34 0 35 0;
#X connect 35 0 24 0;
#X connect 36 0 37 0;
#X connect 37 0 27 0;
#X connect 38 0 39 0;
#X connect 39 0 30 0;
#X restore 38 293 pd page5;
#X connect 0 0 1 0;
#X connect 1 0 3 0;
#X connect 2 0 0 0;
